<svg width="16" height="16" viewBox="0 0 16 16" fill="none" xmlns="http://www.w3.org/2000/svg">
<rect x="1" y="7" width="2" height="2" rx="1" fill="black"/>
<rect x="13" y="7" width="2" height="2" rx="1" fill="black"/>
<rect x="7" y="1" width="2" height="2" rx="1" fill="black"/>
<g opacity="0.5">
<path d="M7 6C7 5.44772 7.44772 5 8 5C8.55228 5 9 5.44772 9 6V10C9 10.5523 8.55228 11 8 11C7.44772 11 7 10.5523 7 10V6Z" fill="black"/>
<path d="M5 8C5 7.44772 5.44772 7 6 7H10C10.5523 7 11 7.44772 11 8C11 8.55228 10.5523 9 10 9H6C5.44772 9 5 8.55228 5 8Z" fill="black"/>
</g>
<rect x="7" y="13" width="2" height="2" rx="1" fill="black"/>
</svg>
