<svg width="512" height="512" viewBox="0 0 512 512" fill="none" xmlns="http://www.w3.org/2000/svg">
<path d="M229.333 16C242.789 15.9957 255.748 21.0775 265.615 30.2266C275.481 39.3757 281.524 51.9159 282.533 65.3333L282.667 69.3333V229.333C282.671 242.789 277.589 255.748 268.44 265.615C259.291 275.481 246.751 281.524 233.333 282.533L229.333 282.667H69.3333C55.878 282.671 42.9182 277.589 33.0521 268.44C23.1859 259.291 17.1425 246.751 16.1333 233.333L16 229.333V69.3333C15.9957 55.878 21.0775 42.9182 30.2266 33.0521C39.3757 23.1859 51.9159 17.1425 65.3333 16.1333L69.3333 16H229.333ZM229.333 69.3333H69.3333V229.333H229.333V69.3333ZM162.667 122.667C165.787 122.666 168.81 123.759 171.207 125.757C173.604 127.755 175.225 130.53 175.787 133.6L176 136V162.667C176.001 165.787 174.907 168.81 172.91 171.207C170.912 173.604 168.136 175.225 165.067 175.787L162.667 176H136C132.879 176.001 129.857 174.907 127.46 172.91C125.062 170.912 123.442 168.136 122.88 165.067L122.667 162.667V136C122.666 132.879 123.759 129.857 125.757 127.46C127.755 125.062 130.53 123.442 133.6 122.88L136 122.667H162.667ZM496 69.3333C496 55.1885 490.381 41.6229 480.379 31.621C470.377 21.619 456.812 16 442.667 16H389.333C375.188 16 361.623 21.619 351.621 31.621C341.619 41.6229 336 55.1885 336 69.3333V122.667C336 136.812 341.619 150.377 351.621 160.379C361.623 170.381 375.188 176 389.333 176H442.667C456.812 176 470.377 170.381 480.379 160.379C490.381 150.377 496 136.812 496 122.667V69.3333ZM389.333 69.3333H442.667V122.667H389.333V69.3333ZM122.667 336C136.812 336 150.377 341.619 160.379 351.621C170.381 361.623 176 375.188 176 389.333V442.667C176 456.812 170.381 470.377 160.379 480.379C150.377 490.381 136.812 496 122.667 496H69.3333C55.1885 496 41.6229 490.381 31.621 480.379C21.619 470.377 16 456.812 16 442.667V389.333C16 375.188 21.619 361.623 31.621 351.621C41.6229 341.619 55.1885 336 69.3333 336H122.667ZM122.667 389.333H69.3333V442.667H122.667V389.333ZM496 389.333C496 375.188 490.381 361.623 480.379 351.621C470.377 341.619 456.812 336 442.667 336H389.333C375.188 336 361.623 341.619 351.621 351.621C341.619 361.623 336 375.188 336 389.333V442.667C336 456.812 341.619 470.377 351.621 480.379C361.623 490.381 375.188 496 389.333 496H442.667C456.812 496 470.377 490.381 480.379 480.379C490.381 470.377 496 456.812 496 442.667V389.333ZM389.333 389.333H442.667V442.667H389.333V389.333ZM336 256C336 248.928 338.81 242.145 343.81 237.144C348.811 232.143 355.594 229.333 362.667 229.333H469.333C476.406 229.333 483.189 232.143 488.189 237.144C493.19 242.145 496 248.928 496 256C496 263.072 493.19 269.855 488.189 274.856C483.189 279.857 476.406 282.667 469.333 282.667H362.667C355.594 282.667 348.811 279.857 343.81 274.856C338.81 269.855 336 263.072 336 256ZM282.667 362.667C282.667 355.594 279.857 348.811 274.856 343.81C269.855 338.81 263.072 336 256 336C248.928 336 242.145 338.81 237.144 343.81C232.143 348.811 229.333 355.594 229.333 362.667V469.333C229.333 476.406 232.143 483.189 237.144 488.189C242.145 493.19 248.928 496 256 496C263.072 496 269.855 493.19 274.856 488.189C279.857 483.189 282.667 476.406 282.667 469.333V362.667Z" fill="#888888"/>
</svg>
